<?xml version="1.0" encoding="utf-8"?>
<!-- Generator: Adobe Illustrator 23.0.1, SVG Export Plug-In . SVG Version: 6.00 Build 0)  -->
<svg version="1.1" id="Layer_1" xmlns="http://www.w3.org/2000/svg" xmlns:xlink="http://www.w3.org/1999/xlink" x="0px" y="0px"
	 viewBox="0 0 300 300" style="enable-background:new 0 0 300 300;" xml:space="preserve">
<style type="text/css">
	.st0{fill:none;stroke:#000000;stroke-width:3.4;stroke-linecap:round;stroke-miterlimit:10;}
	.st1{fill:none;stroke:#A3195B;stroke-width:3.4;stroke-linecap:round;stroke-miterlimit:10;stroke-dasharray:0,17.9968;}
	.st2{fill:#E30613;}
	.st3{fill:#A3195B;}
	.st4{fill:#E6007E;}
</style>
<path class="st0" d="M240.9,61.6c22.4,23,36.1,54.4,36.1,88.9c0,70.4-57.1,127.6-127.6,127.6S21.9,221,21.9,150.5
	c0-10.4,1.2-20.5,3.6-30.2"/>
<path class="st0" d="M31,103C49.8,56.1,95.8,23,149.4,23c30.5,0,58.5,10.7,80.5,28.6"/>
<g>
	
		<ellipse transform="matrix(0.7071 -0.7071 0.7071 0.7071 -62.675 149.7537)" class="st1" cx="149.4" cy="150.5" rx="137.5" ry="137.5"/>
</g>
<g>
	<g>
		<g>
			<path d="M197.5,221.3c0.2-2.7,0.7-5.1,1.5-7.5c2.1-5.8,2.9-7.9,5.6-14.1c0.5-1.1,1-2.3,1.5-3.5c0.5-1.2,1.4-1.8,2.4-1.7
				c1,0.1,1.5,0.9,1.1,2.1c-0.5,1.3-1,2.6-1.6,3.8c-2.5,5.8-3.4,8.1-5.5,13.7c-0.6,1.6-0.9,3.2-1.2,4.8c-0.2,0.9-0.1,1.9,0.1,2.8
				c0.1,0.9,0.8,1.4,1.8,1.4c1.7,0.1,3.2-0.2,4.7-1.6c2.1-1.9,4-4,5.5-6.4c0.1-0.2,0.3-0.5,0.5-0.7c0.6-0.7,1.5-1.1,2.3-0.8
				c0.7,0.3,1.1,1,0.8,1.9c-0.1,0.3-0.3,0.7-0.5,1c-1.9,3.1-4.3,5.8-7.2,8.1c-2.9,2.3-5.9,2.6-8.8,1.6c-1.3-0.5-2.1-1.5-2.5-2.9
				C197.7,222.7,197.6,221.9,197.5,221.3z"/>
			<path d="M213,181.5c0.9,0.2,1.8,0.3,2.6,0.6c0.6,0.2,0.8,0.9,0.7,1.6c-0.2,1.6-1,3.1-2.3,4.3c-0.8,0.7-1.8,1.2-2.8,1.2
				c-1.7,0-2.6-1.1-2.2-2.8c0.4-1.7,1.5-3.1,2.8-4.3C212.1,181.9,212.5,181.7,213,181.5z"/>
		</g>
		<path d="M233.4,206.2c0.6,1.8,1.2,3.5,1.9,5.2c0.4,1.1,1,2.1,1.7,3c1.2,1.5,3.2,1.6,5.1,0.2c2.2-1.6,4.1-3.4,5.4-5.7
			c1.1-2,2-4,3-6c0.2-0.4,0.4-0.9,0.7-1.3c0.5-0.8,1.4-1.2,2.2-1.1c0.8,0.2,1.2,0.9,1,1.8c0,0,0,0.1,0,0.1c-2.2,5-4.4,9.9-9.1,13.7
			c-2,1.6-4.1,2.8-6.5,2.9c-1.6,0.1-2.9-0.4-4-1.3c-1.5-1.3-2.4-3.1-3-5c-0.5-1.5-1.2-3-1.8-4.5c-0.1-0.2-0.2-0.3-0.4-0.7
			c-0.4,0.9-0.8,1.6-1,2.4c-0.9,3.2-1.7,6.4-2.6,9.6c-0.1,0.5-0.2,1-0.4,1.5c-0.4,0.9-1.3,1.5-2.1,1.4c-0.9-0.1-1.4-0.7-1.3-1.6
			c0.1-0.4,0.2-0.8,0.3-1.3c1.9-7,3.9-13.9,5.8-20.9c0.5-1.6,1-3.3,1.4-4.9c0.1-0.3,0.2-0.7,0.3-1.1c-0.9,0-1.7,0.1-2.5,0.1
			c-3.7-0.1-6.6-1.3-8.1-4.3c-0.8-1.5-1-3.1-0.5-5c0.9-3.7,3.1-6.7,6.5-9c1.5-1.1,3.2-1.5,4.8-1.3c1.2,0.1,2.2,0.6,2.6,1.7
			c0.3,0.8,0,1.6-0.8,2.2c-0.7,0.6-1.6,0.6-2.3,0.1c-1-0.8-1.7-0.8-3,0.1c-2.4,1.7-4,3.9-4.4,6.6c-0.3,1.8,0.5,3.1,1.7,4
			c2,1.5,4.4,1.5,7.2,0.9c0.4-1,0.7-2,1.1-2.9c1.8-4.6,3.7-9.1,6.6-13.4c0.6-0.9,1.3-1.8,2-2.7c1-1.1,2.2-2.1,3.6-2.7
			c3.9-2,6.4,0.3,6.6,2.9c0.1,1.4-0.2,2.8-0.7,4.3c-0.8,2.4-2.2,4.6-3.9,6.8c-3.3,4.1-7.1,7.6-11.9,10c-0.3,0.1-0.7,0.5-0.8,0.7
			c-0.6,1.8-1.1,3.6-1.7,5.7c0.8-0.5,1.1-1.1,1.5-1.6c2.4-3.1,5.3-5.7,8.6-8c0.6-0.4,1.4-0.8,2.1-1.1c3.1-1.2,5.4,0.5,5,3.5
			c-0.3,2.2-1.3,4.3-3,6.1c-0.8,0.8-1.6,1.6-2.5,2.3c-2.8,2.5-5.8,4.8-9.1,6.7C234.1,205.7,233.8,206,233.4,206.2z M235.7,186.7
			c0.4-0.2,0.8-0.4,1.2-0.7c3.7-2.6,6.6-5.8,8.8-9.5c0.7-1.1,1-2.4,1.4-3.6c0.2-0.5,0.2-1,0.2-1.5c0-1.4-0.9-1.8-2.3-0.9
			c-0.7,0.4-1.3,1-1.8,1.5c-0.5,0.5-0.8,1-1.2,1.5c-2.8,4-4.7,8.4-6.4,12.8C235.6,186.4,235.7,186.5,235.7,186.7z M245.5,189.8
			c-0.8,0.4-1.3,0.6-1.8,0.9c-4.8,3.2-8.3,7.6-11.5,12.4c0.4-0.2,0.6-0.3,0.8-0.4c1.7-1.1,3.4-2.2,5-3.4c1.9-1.4,3.6-3,5.3-4.6
			C244.8,193.3,245.5,191.8,245.5,189.8z"/>
		<path d="M199.5,181.2c-0.8,2.9-1.7,5.8-2.5,8.7c-2,7.5-3.9,15-6,22.6c-0.8,3-2,5.9-3.1,8.9c-1,2.6-2.5,4.9-4.6,7.1
			c-2.6,2.6-5.5,3.9-8.8,4c-1.2,0-2.5-0.1-3.6-0.3c-5.9-1-7.7-7.2-5.2-12.2c0.9-1.8,2-3.5,3.5-5c2.1-2.2,4.6-3.4,7.4-3.6
			c2-0.2,3.2,0.7,3.8,2.3c0.4,0.9-0.1,2-1,2.5c-1,0.5-2,0.3-2.3-0.6c-0.3-0.8-0.9-0.9-1.7-0.7c-1.1,0.2-2.2,0.6-3.1,1.4
			c-2.2,2.1-3.8,4.4-4,7.1c-0.3,2.6,1.3,4.8,3.8,5.4c1.3,0.3,2.7,0.4,4.1,0.2c1.6-0.2,3-0.8,4.3-2c1.7-1.5,2.9-3.2,3.8-5.1
			c1.6-3.5,2.8-7.1,3.8-10.7c2-7.6,4-15.1,6-22.7c0.5-1.8,1.1-3.6,1.6-5.4c0.1-0.4,0.2-0.8,0.4-1.3c-0.6,0-1.2,0.1-1.8,0.1
			c-4.3,0.5-8.7,0.9-13,2.1c-1.5,0.4-3,0.9-4.5,1.6c-3.8,1.8-6.1,4.7-6.8,8.5c-0.2,1.3,0.1,2.3,0.8,3.3c0.5,0.7,1.4,0.9,2.4,0.9
			c2.9-0.2,5.5-1.5,7.6-3.8c0.5-0.6,0.8-1.4,1.2-2.1c0.2-0.3,0.2-0.7,0.3-1c0.4-0.7,1.2-1.2,1.9-1.2c0.8,0,1.3,0.5,1.4,1.2
			c0,0.3,0,0.7-0.1,1c-0.3,1.4-1,2.7-2,3.9c-3,3.4-6.7,5.2-10.9,5.5c-3.3,0.3-5.8-1.7-6.2-4.9c-0.5-4.4,1.4-8.3,5.3-11.7
			c2.4-2.1,5.2-3.2,8.1-4.1c3.6-1.1,7.3-1.7,10.9-2.1c4.3-0.5,8.6-0.9,13-1.3c4.3-0.5,8.6-1.3,12.9-3.2c1.8-0.8,3.4-1.9,4.9-3.3
			c1.8-1.7,2.6-3.8,2.8-5.9c0.1-1.8-0.8-2.8-2.6-3c-2-0.2-3.9,0.1-5.8,1.4c-0.7,0.5-1.4,1.2-1.9,1.8c-1,1.3-1,2.7-0.1,3.7
			c0.7,0.8,0.6,1.7-0.2,2.4c-0.8,0.8-1.9,0.9-2.6,0.2c-0.5-0.4-0.9-1-1.1-1.6c-0.7-2.2-0.3-4.4,1.5-6.6c2.5-3.1,5.7-4.6,9.3-4.8
			c0.5,0,0.9,0,1.4,0c4.6,0,6.4,3.4,5.7,7.3c-0.7,3.7-2.8,6.6-6.2,9c-2.2,1.6-4.5,2.6-6.9,3.4c-4.6,1.5-9.2,2.3-13.8,2.7
			C200.1,181.1,199.9,181.2,199.5,181.2z"/>
	</g>
	<g>
		<path d="M169.5,159.7c0.6-0.5,1-0.8,1.3-1.1c2.3-2.1,3.6-6.5,5.1-8.9c0.3-0.5,0.1-0.6,0.5-1.1c0.7-0.8,1.7-2.6,2.5-2.3
			c0.8,0.3,0.4,0.9-0.6,3.9c-0.3,0.9-0.4,1.4-1.3,3.7c-2.4,5.2-3.9,7.5-8.4,10.5c-0.7,0.5-1.2,1.1-1.6,1.8c-1.6,3.3-3.6,6.4-6.3,9.1
			c-1.9,1.9-3.9,3.5-6.4,4.6c-3.8,1.6-7.2-0.3-7.9-3.2c-0.5-2.2-0.4-4.5,0.1-6.9c0,0,0-0.1,0-0.1c0.6-1.5,0.4-2.5-0.7-3.6
			c-1.6-1.6-1.6-3.9-0.9-6.3c0.4-1.1,0.8-2.3,1.5-3.3c3-4.8,7-8.5,12.2-10.8c3.4-1.5,6.3-1,8.5,1c1.9,1.6,2.8,3.9,2.9,6.5
			c0.1,1.7,0,3.4-0.5,5.1C169.7,158.7,169.6,159.1,169.5,159.7z M148.7,163.2c0.3-0.4,0.5-0.7,0.7-1c1-1.6,2.2-3.1,3.7-4.4
			c0.7-0.6,1.6-1.2,2.4-1.7c0.9-0.5,1.9-0.6,2.8-0.4c1,0.3,1.4,1,1.1,1.9c-0.3,1-1.1,1.5-2.3,1.6c-0.4,0-0.9,0.1-1.2,0.4
			c-1.9,1.5-3.3,3.4-4.4,5.6c2.1,0.9,4.2,1.3,6.6,0.7c2.1-0.5,4.1-1.6,6.1-2.6c0.3-0.2,0.7-0.7,0.8-1c0.5-1.8,1.2-3.7,1.5-5.6
			c0.5-2.7,0-5.1-1.7-7c-1.4-1.5-3.3-1.8-5.6-0.8c-4,1.8-7,4.6-9.4,8.2c-0.6,0.9-1,2-1.4,3.1C148.1,161.3,148.1,162.3,148.7,163.2z
			 M162,168.2c-1.4,0.4-2.7,0.9-4,1.2c-1.3,0.2-2.7,0.3-4,0.3c-1.3-0.1-2.4-0.4-3.8-0.7c-0.2,1.4-0.4,2.7-0.4,3.9
			c0,0.9,0.1,1.8,0.4,2.6c0.5,1.4,1.9,1.9,3.4,1.2c1-0.4,1.9-1,2.7-1.6c2.2-1.7,4-3.9,5.4-6.2C161.9,168.6,162,168.4,162,168.2z"/>
		<path d="M177.7,144.4c-0.4-1-0.8-1.9-1.1-2.8c-0.7-3.1,0.3-6.1,2.8-9c0.9-1,1.9-1.7,3.2-2.1c2.3-0.8,4.3,0,4.9,2.1
			c0.5,1.7,0.3,3.4-0.5,5.2c-0.6,1.3-1.4,2.6-2.2,3.8c-0.2,0.3-0.4,0.6-0.7,1c0.7,0,1.2,0.1,1.8,0.1c1.2,0.1,2.4,0.2,3.5,0.5
			c2.4,0.6,3.3,2.3,2.8,5c-0.4,2-1.3,3.8-2.1,5.7c-1.7,3.8-3.3,7.7-3.8,11.6c-0.3,2,1,3.4,2.9,3.3c1-0.1,2-0.6,2.8-1.3
			c2.3-1.9,4.2-4.1,5.1-6.9c0.2-0.7,0.5-1.4,0.7-2.1c0.4-1.1,1.3-1.7,2.3-1.6c0.9,0.1,1.5,0.8,1.2,1.8c-0.8,2.7-1.7,5.3-3.7,7.7
			c-1,1.2-2.1,2.3-3.3,3.3c-2,1.7-4.2,2.7-6.6,2.6c-3.4-0.2-5.5-2.9-5-6.3c0.4-3.1,1.3-6.1,2.6-9.1c0.9-2.2,1.9-4.4,2.7-6.6
			c0.3-0.8,0.5-1.5,0.7-2.3c0.2-0.6-0.1-1-0.6-1.2c-0.5-0.2-1.1-0.3-1.6-0.4c-1.7-0.1-3.4-0.3-5.1-0.3c-0.3,0-0.8,0.3-1.1,0.5
			c-1.2,0.9-1.1,1.2-2.5,4.7c-0.3,0.6-0.7,1.3-1.4,2.4c-0.5,0.8-1.2,1.8-1.2,1.8c-0.5-0.4-1.6-0.7-1.6-0.7s0.7-1.4,1.3-2.8
			c0.6-1.5,0.8-2.6,1.4-4.2C176.7,146.3,177.2,145.3,177.7,144.4z M180.8,141.3c1.3-1.4,2.7-3.7,3.1-5.1c0.1-0.6,0.2-1.2,0.1-1.7
			c-0.1-0.9-0.4-1-1.2-0.4c-0.2,0.1-0.4,0.3-0.6,0.5C180.3,136.5,179.7,139.4,180.8,141.3z"/>
		<path d="M149.2,134.9c-0.8,2.9-1.7,5.8-2.5,8.7c-2,7.5-3.9,15-6,22.6c-0.8,3-2,5.9-3.1,8.9c-1,2.6-2.5,4.9-4.6,7.1
			c-2.6,2.6-5.5,3.9-8.8,4c-1.2,0-2.5-0.1-3.6-0.3c-5.9-1-7.7-7.2-5.2-12.2c0.9-1.8,2-3.5,3.5-5c2.1-2.2,4.6-3.4,7.4-3.6
			c2-0.2,3.2,0.7,3.8,2.3c0.4,0.9-0.1,2-1,2.5c-1,0.5-2,0.3-2.3-0.6c-0.3-0.8-0.9-0.9-1.7-0.7c-1.1,0.2-2.2,0.6-3.1,1.4
			c-2.2,2.1-3.8,4.4-4,7.1c-0.3,2.6,1.3,4.8,3.8,5.4c1.3,0.3,2.7,0.4,4.1,0.2c1.6-0.2,3-0.8,4.3-2c1.7-1.5,2.9-3.2,3.8-5.1
			c1.6-3.5,2.8-7.1,3.8-10.7c2-7.6,4-15.1,6-22.7c0.5-1.8,1.1-3.6,1.6-5.4c0.1-0.4,0.2-0.8,0.4-1.3c-0.6,0-1.2,0.1-1.8,0.1
			c-4.3,0.5-8.7,0.9-13,2.1c-1.5,0.4-3,0.9-4.5,1.6c-3.8,1.8-6.1,4.7-6.8,8.5c-0.2,1.3,0.1,2.3,0.8,3.3c0.5,0.7,1.4,0.9,2.4,0.9
			c2.9-0.2,5.5-1.5,7.6-3.8c0.5-0.6,0.8-1.4,1.2-2.1c0.2-0.3,0.2-0.7,0.3-1c0.4-0.7,1.2-1.2,1.9-1.2c0.8,0,1.3,0.5,1.4,1.2
			c0,0.3,0,0.7-0.1,1c-0.3,1.4-1,2.7-2,3.9c-3,3.4-6.7,5.2-10.9,5.5c-3.3,0.3-5.8-1.7-6.2-4.9c-0.5-4.4,1.4-8.3,5.3-11.7
			c2.4-2.1,5.2-3.2,8.1-4.1c3.6-1.1,7.3-1.7,10.9-2.1c4.3-0.5,8.6-0.9,13-1.3c4.3-0.5,8.6-1.3,12.9-3.2c1.8-0.8,3.4-1.9,4.9-3.3
			c1.8-1.7,2.6-3.8,2.8-5.9c0.1-1.8-0.8-2.8-2.6-3c-2-0.2-3.9,0.1-5.8,1.4c-0.7,0.5-1.4,1.2-1.9,1.8c-1,1.3-1,2.7-0.1,3.7
			c0.7,0.8,0.6,1.7-0.2,2.4c-0.8,0.8-1.9,0.9-2.6,0.2c-0.5-0.4-0.9-1-1.1-1.6c-0.7-2.2-0.3-4.4,1.5-6.6c2.5-3.1,5.7-4.6,9.3-4.8
			c0.5,0,0.9,0,1.4,0c4.6,0,6.4,3.4,5.7,7.3c-0.7,3.7-2.8,6.6-6.2,9c-2.2,1.6-4.5,2.6-6.9,3.4c-4.6,1.5-9.2,2.3-13.8,2.7
			C149.8,134.8,149.6,134.8,149.2,134.9z"/>
	</g>
	<g>
		<g>
			<path d="M102.6,126.5c0.2-2.7,0.7-5.1,1.5-7.5c2.1-5.8,2.9-7.9,5.6-14.1c0.5-1.1,1-2.3,1.5-3.5c0.5-1.2,1.4-1.8,2.4-1.7
				c1,0.1,1.5,0.9,1.1,2.1c-0.5,1.3-1,2.6-1.6,3.8c-2.5,5.8-3.4,8.1-5.5,13.7c-0.6,1.6-0.9,3.2-1.2,4.8c-0.2,0.9-0.1,1.9,0.1,2.8
				c0.1,0.9,0.8,1.4,1.8,1.4c1.7,0.1,3.2-0.2,4.7-1.6c2.1-1.9,4-4,5.5-6.4c0.1-0.2,0.3-0.5,0.5-0.7c0.6-0.7,1.5-1.1,2.3-0.8
				c0.7,0.3,1.1,1,0.8,1.9c-0.1,0.3-0.3,0.7-0.5,1c-1.9,3.1-4.3,5.8-7.2,8.1c-2.9,2.3-5.9,2.6-8.8,1.6c-1.3-0.5-2.1-1.5-2.5-2.9
				C102.8,127.9,102.7,127,102.6,126.5z"/>
			<path d="M118,86.6c0.9,0.2,1.8,0.3,2.6,0.6c0.6,0.2,0.8,0.9,0.7,1.6c-0.2,1.6-1,3.1-2.3,4.3c-0.8,0.7-1.8,1.2-2.8,1.2
				c-1.7,0-2.6-1.1-2.2-2.8c0.4-1.7,1.5-3.1,2.8-4.3C117.1,87.1,117.6,86.9,118,86.6z"/>
		</g>
		<path d="M83.2,88.7c-0.6-1.5-1.9-2.3-3.6-2.4c-2.2-0.2-4.4,0.3-6.5,1.8c-1.4,1-2.8,2.2-4,3.5c-1.7,1.9-3.3,4-4.8,6
			c-1.3,1.8-2.6,3.7-3.9,5.5c-0.2,0.2-0.4,0.4-0.7,0.8c0.1-0.4,0.1-0.6,0.1-0.8c0.8-3.4,1.6-6.8,2.4-10.1c0.2-0.7,0.3-1.4,0.3-2.1
			c0-0.9-0.5-1.5-1.3-1.5c-0.8-0.1-1.6,0.4-2.1,1.3c-0.1,0.2-0.3,0.5-0.4,0.7c-0.8,1.8-2,3.3-3.5,4.7c-3.8,3.4-7.8,6.4-12.3,8.7
			c-3.5,1.8-6.8,3.8-10.2,5.8c-2.7,1.6-5,3.7-7,6.1c-3.6,4.2-1.7,7.4-1,8.6c0.9,1.4,1.9-4.7,3.7-6.8c1.7-2.1,3.7-3.9,6.1-5.2
			c3.4-2,6.9-4,10.4-5.8c3.8-2,7.3-4.4,10.6-7.2c0.5-0.5,1.1-0.9,1.6-1.4c0.1,0,0.2,0,0.2,0.1c-0.1,0.4-0.1,0.7-0.2,1.1
			c-1.9,7.6-3.8,15.1-5.6,22.7c-1.2,5-2.3,10-3.9,15.1c-0.5,1.5-0.8,3-1.2,4.4c-0.2,0.7-0.2,1.4,0.3,1.8c0.4,0.4,1,0.5,1.6,0.3
			c0.9-0.3,1.3-1,1.6-1.8c0.9-3.2,1.9-6.5,2.7-9.7c1.1-4.5,2.1-9,3.2-13.6c0.2-0.8,0.3-1.5,1-2.1c1.5-1.3,2.9-2.7,4.5-3.9
			c0.9-0.7,1.9-1.2,2.9-1.7c1.7-0.7,2.5-0.3,2.6,1.3c0,0.9,0,1.9-0.2,2.9c-0.8,3.2-1.6,6.3-2.5,9.5c-0.7,2.6-1.6,5.1-2.2,7.7
			c-0.4,1.5-0.6,3-0.3,4.5c0.6,3,3.5,4.4,6.7,3.3c1.3-0.4,2.4-1.2,3.5-2.1c2.1-1.8,3.7-3.9,4.9-6.3c1.4-2.8,2.8-5.6,4.1-8.4
			c0.4-0.9,0.2-1.8-0.5-2.1c-0.7-0.3-1.8,0-2.5,0.9c-0.4,0.5-0.7,1.1-1,1.7c-1,2-1.9,4-2.8,6c-0.9,1.9-2,3.7-3.6,5.2
			c-0.6,0.6-1.4,1.2-2.1,1.6c-1.4,0.8-2.8,0.2-3-1.1c-0.1-0.7-0.1-1.4,0-2.1c0.4-1.8,0.9-3.6,1.4-5.4c1.1-4,2.3-8,3.4-12
			c0.5-2,0.8-4.1,0.3-5.9c-0.6-2.4-2.5-3.3-5.2-2.8c-1.4,0.3-2.7,0.9-3.9,1.6c-0.3,0.2-0.6,0.3-0.9,0.4c-0.1-0.1-0.1-0.1-0.2-0.2
			c1.4-2.1,2.8-4.3,4.2-6.4c2-2.8,4.1-5.7,6.2-8.4c1-1.3,2.3-2.4,3.5-3.5c1.2-1,2.6-1.4,4-1.5c0.9,0,1.6,0.4,1.8,1.2
			c0.4,1.4,0.3,2.8-0.6,4.3c-0.5,0.8-1.1,1.5-1.7,2.2c-0.7,0.9-0.9,1.8-0.3,2.4c0.6,0.6,1.5,0.6,2.4-0.1c0.4-0.3,0.9-0.7,1.3-1.1
			C84,95.5,84.2,91.3,83.2,88.7z"/>
		<path d="M133.3,119.4c-0.2,0.3-0.4,0.6-0.6,0.9c-0.9,1.3-1.8,2.7-2.8,4c-1.3,1.7-2.9,2.9-4.9,3.7c-3.1,1.3-5.6,0.3-6.3-2.5
			c-0.4-1.5-0.3-3.2-0.1-4.8c0.4-2.9,1.1-5.9,2.1-8.8c1.5-4.5,3.1-9.1,4.7-13.6c0.2-0.7,0.5-1.3,0.8-1.9c0.5-1.1,1.6-1.7,2.5-1.4
			c0.9,0.2,1.2,1.1,0.8,2.2c-1.4,3.9-2.8,7.8-4.2,11.7c-1.3,3.8-2.5,7.6-3,11.5c-0.1,1-0.2,2.1-0.1,3.1c0.2,1.8,1.1,2.1,3,1
			c1.1-0.6,1.9-1.5,2.6-2.5c2.4-3.2,4.2-6.6,5.6-10.1c0.8-2.1,1.6-4.3,2.5-6.4c1.2-2.8,2.4-5.7,3.7-8.5c0.1-0.3,0.3-0.6,0.5-0.9
			c0.6-1,1.4-1.4,2.2-1.3c0.9,0.1,1.4,0.8,1.2,1.9c-0.1,0.8-0.3,1.7-0.6,2.6c-1.3,4.2-2.6,8.5-3.8,12.7c-0.7,2.5-1.3,5-1.9,7.5
			c-0.2,0.9-0.1,1.7,0.1,2.6c0.1,0.8,0.5,1,1.4,0.6c0.9-0.4,1.8-0.9,2.6-1.6c0.8-0.7,1.5-1.6,2-2.5c1.2-2,2.2-4,3.2-6
			c0.1-0.1,0.1-0.3,0.2-0.5c0.5-1,1.4-1.5,2.3-1.3c0.9,0.2,1.3,1,1,2c0,0,0,0.1,0,0.1c-1.5,3.3-3.1,6.6-5.6,9.4
			c-1.7,1.9-3.7,3.4-6.2,3.9c-2.1,0.4-3.7-0.3-4.4-2.2C133.2,122.6,133.2,121.1,133.3,119.4z"/>
		<path d="M104.5,102.2c-0.8-2.8-4-3.3-6.5-0.9c-0.8,0.8-1.6,1.7-2.1,2.7c-0.6,1-0.9,2-1.2,3.1c-0.6,2.1-0.6,4.1-0.6,6.1
			c0,2.1,0.3,1.4-1.5,3c-1.5,1.2-3,2.4-4.4,3.7c-1.6,1.4-2.7,3.1-3,5.1c-0.2,1,0,1.9,0.6,2.6c0.7,0.6,1.6,0.6,2.5,0
			c0.8-0.6,1.1-1.5,0.7-2.3c-0.2-0.5-0.1-0.9,0.1-1.4c0.3-0.4,0.5-0.9,0.9-1.2c1.3-1.2,2.7-2.4,4.1-3.6c0.1,0,0.2,0,0.3,0.1
			c0,1.5,0,2.9-0.1,4.4c-0.2,3.1-1.9,5.8-4.5,8.1c-1.4,1.2-3,1.9-4.7,1.8c-3.4-0.2-5.9-3.2-5.4-6.6c0.3-2,1.5-3.8,2.7-5.5
			c0.9-1.2,2.1-1.8,3.4-2.4c0.2-0.1,0.5-0.2,0.7-0.4c0.7-0.5,1-1.1,0.9-1.8c-0.1-0.7-0.4-1.1-1.2-1.2c-0.4,0-0.8,0-1.2,0.2
			c-2.3,0.9-4.4,2.3-5.8,4.5c-0.5,0.9-1.1,1.7-1.6,2.6c-2.8,4.7-1.8,9.1,0.8,11.7c2.9,2.8,7.7,3.7,12.6,0c3.9-3,6.3-6.8,6.7-11.3
			c0.2-2.2,0-4.3,0-6.5c0-0.6,0.1-1,0.7-1.6c1.1-1.1,2.1-2.2,3.1-3.3c1.7-2,2.7-4.3,3.1-6.7C104.7,104.1,104.8,103.1,104.5,102.2z
			 M97.6,111.3c0.3-2.9,0.2-5.6,2.8-8c0.7,0.2,0.7,0.7,0.7,1.3C101.1,106.6,99.7,109.4,97.6,111.3z"/>
	</g>
</g>
<g>
	<g>
		<path d="M221.8,96.6c0.1,0,0.2,0.1,0.3,0.1c1,0.2,1.9-0.5,2.1-1.5c0-0.3,4.8-28.7,22.9-54.5c0.6-0.8,0.4-1.9-0.4-2.5
			c-0.8-0.6-1.9-0.4-2.5,0.4c-18.6,26.5-23.4,55.7-23.5,56C220.5,95.5,221,96.3,221.8,96.6z"/>
	</g>
	<g>
		<path d="M222.2,95.4c0,0,0.1,0,0.1,0c0.3,0.1,0.6-0.2,0.7-0.5c0-0.3,4.8-28.9,23-55c0.2-0.3,0.1-0.6-0.1-0.8
			c-0.3-0.2-0.6-0.1-0.8,0.1c-18.4,26.3-23.2,55.2-23.3,55.5C221.8,95.1,222,95.4,222.2,95.4z"/>
	</g>
</g>
<path d="M211.1,59.3c-11.9-13-33.4-13.1-34.3-13.1c-0.9,0-1.6,0.7-1.7,1.6c-0.5,14.7,3.8,27.4,11.7,35c7.3,7,15.2,8.5,20.5,8.5
	c3.9,0,6.5-0.8,6.6-0.8c0.9-0.3,1.3-1.2,1.1-2.1c-0.1-0.4-0.4-0.8-0.8-1c-0.4-0.2-0.8-0.2-1.3-0.1c-0.1,0-12.5,3.9-23.8-6.9
	c-6.9-6.6-10.8-17.8-10.7-30.8c4.8,0.3,21.1,2,30.2,12c4.7,5.1,6.9,11.7,6.6,19.7c-4.2-1.6-15.1-7-26.4-23.5
	c-0.2-0.4-0.6-0.6-1.1-0.7c-0.4-0.1-0.9,0-1.2,0.3c-0.7,0.5-0.9,1.5-0.4,2.3c15.3,22.2,29.7,25.3,30.3,25.4c0.5,0.1,0.9,0,1.3-0.3
	c0.4-0.3,0.6-0.7,0.6-1.2C219.3,73.8,216.9,65.6,211.1,59.3z"/>
<g>
	<path class="st2" d="M246.8,108.7c-1.7-4.5-4.9-7.9-9-9.5c-4.7-1.9-8.9-0.5-12.2,0.6c-1.5,0.5-2.8,0.9-4.1,1.1
		c-1.2,0.1-2.6-0.1-4.1-0.3c-3.4-0.5-7.7-1.1-12.1,1.6c-3.7,2.3-6.3,6.1-7.2,10.8c-1.2,6.5,0.7,13.8,5.1,19.6
		c5.5,7.2,14.1,10.9,21.9,9.6c2.9,0,5.8-0.7,8.5-2c4.7-2.2,8.8-6.2,11.4-11.3C248.5,122.3,249.1,114.8,246.8,108.7z M241.4,126.9
		c-3.4,6.7-9.8,11-16.4,11c-0.1,0-0.2,0-0.4,0c-6.4,1.1-13.5-2-18.1-8c-3.7-4.8-5.3-11-4.3-16.3c0.5-2.5,1.8-5.9,5.2-8
		c0.3-0.2,0.6-0.4,0.9-0.5c2.8-1.3,5.5-0.9,8.4-0.5c1.7,0.2,3.4,0.5,5.1,0.4c1.7-0.1,3.4-0.7,5-1.3c3.1-1,6-2,9.3-0.7
		c3.8,1.5,5.7,4.7,6.6,7.1C244.7,115.2,244.2,121.4,241.4,126.9z"/>
	<path class="st2" d="M226.9,135.2c-0.2,0.1-0.5,0.2-0.7,0.2c-0.4,0-0.9,0.1-1.3,0.1c-1.1,0.2-2.2,0.2-3.3,0.1
		c-0.8-0.1-1.4-0.5-1.7-1.2c-0.1-0.3-0.2-0.7-0.2-1c0.1-1.1,1.1-2,2.2-1.9c0.8,0.1,1.7,0,2.5-0.1c0.1,0,0.2,0,0.4,0c0.3,0,0.7,0,1,0
		c0.9-0.1,1.7,0.4,2.1,1.2c0.1,0.2,0.2,0.5,0.2,0.7C228.2,134,227.7,134.8,226.9,135.2z"/>
	<path class="st2" d="M216.3,133.4c-0.6,0.3-1.3,0.3-1.9-0.1c-2.3-1.3-4.3-3.2-5.9-5.3c-0.8-1.1-1.5-2.2-2-3.4
		c-1.7-3.6-2.3-7.5-1.7-11.1c0.2-1.1,1.3-1.9,2.4-1.7c0.7,0.1,1.2,0.6,1.5,1.2c0.2,0.4,0.2,0.8,0.2,1.3c-0.5,2.7,0,5.8,1.3,8.6
		c0.5,1,1,1.9,1.7,2.7c1.3,1.7,2.9,3.2,4.7,4.2c0.4,0.2,0.7,0.5,0.8,0.9c0.3,0.6,0.3,1.3-0.1,1.9C217,132.9,216.7,133.2,216.3,133.4
		z"/>
	<path class="st3" d="M233.4,139.3c-2.7,1.3-5.5,1.9-8.3,1.9c-7.4,1.3-15.8-2.3-21.1-9.3c-4.3-5.6-6.1-12.7-5-18.9
		c0.9-4.5,3.2-8.1,6.8-10.3c4.1-2.5,8.1-2,11.5-1.5c1.6,0.2,3,0.4,4.3,0.3c1.3-0.1,2.7-0.6,4.2-1.1c3.3-1.1,7.1-2.4,11.6-0.6
		c3.9,1.6,6.9,4.8,8.5,9c2.2,5.9,1.6,13.2-1.6,19.4C241.9,133.2,238,137.1,233.4,139.3z M208.1,104.3c-0.3,0.2-0.7,0.3-1,0.6
		c-3,1.8-4.9,4.8-5.6,8.6c-1,5.5,0.7,12,4.5,16.9c4.7,6.2,12.2,9.5,18.9,8.3c7.3-0.1,13.8-4.7,17.3-11.5c2.9-5.6,3.4-12.1,1.4-17.4
		c-1.4-3.7-3.8-6.3-7.1-7.6c-3.6-1.4-6.8-0.4-9.9,0.6c-1.7,0.6-3.2,1.1-4.8,1.2c-1.6,0.1-3.2-0.1-4.9-0.4
		C214.1,103.3,211.2,102.9,208.1,104.3z"/>
	<path class="st3" d="M216,132.6c-0.4,0.2-0.8,0.2-1.2,0c-2.2-1.2-4.1-3-5.7-5.1c-3.1-4.1-4.4-9.3-3.6-13.9c0.1-0.7,0.8-1.1,1.5-1
		c0.7,0.1,1.1,0.8,1,1.5c-0.7,3.9,0.5,8.4,3.1,12c1.3,1.8,3,3.3,4.9,4.4c0.6,0.3,0.8,1.1,0.5,1.7C216.4,132.3,216.2,132.5,216,132.6
		z"/>
	<path class="st3" d="M226.5,134.5c-0.1,0.1-0.3,0.1-0.4,0.1c-0.5,0-0.9,0.1-1.4,0c-0.8,0.2-1.9,0.2-3,0.1c-0.7-0.1-1.2-0.7-1.2-1.3
		c0.1-0.7,0.7-1.2,1.3-1.2c0.9,0.1,1.8,0,2.7-0.1c0.6,0,1,0,1.3-0.1c0.7-0.1,1.3,0.4,1.4,1.1C227.3,133.7,227,134.2,226.5,134.5z"/>
	<path class="st3" d="M216,132.6c-0.4,0.2-0.8,0.2-1.2,0c-2.2-1.2-4.1-3-5.7-5.1c-3.1-4.1-4.4-9.3-3.6-13.9c0.1-0.7,0.8-1.1,1.5-1
		c0.7,0.1,1.1,0.8,1,1.5c-0.7,3.9,0.5,8.4,3.1,12c1.3,1.8,3,3.3,4.9,4.4c0.6,0.3,0.8,1.1,0.5,1.7C216.4,132.3,216.2,132.5,216,132.6
		z"/>
	<path class="st3" d="M226.5,134.5c-0.1,0.1-0.3,0.1-0.4,0.1c-0.5,0-0.9,0.1-1.4,0c-0.8,0.2-1.9,0.2-3,0.1c-0.7-0.1-1.2-0.7-1.2-1.3
		c0.1-0.7,0.7-1.2,1.3-1.2c0.9,0.1,1.8,0,2.7-0.1c0.6,0,1,0,1.3-0.1c0.7-0.1,1.3,0.4,1.4,1.1C227.3,133.7,227,134.2,226.5,134.5z"/>
	<path class="st4" d="M233,138.5c-2.6,1.2-5.3,1.8-8,1.9c-7.2,1.3-15.3-2.2-20.4-8.9c-4.1-5.4-5.9-12.3-4.8-18.3
		c0.8-4.3,3-7.7,6.4-9.7c0.4-0.2,0.8-0.4,1.2-0.6c3.5-1.7,6.9-1.1,9.8-0.7c1.6,0.2,3.1,0.5,4.5,0.3c1.4-0.1,2.9-0.6,4.4-1.1
		c3.2-1.1,6.8-2.3,11-0.6c3.7,1.5,6.5,4.4,8,8.6c2.1,5.7,1.6,12.7-1.5,18.7C241.3,132.7,237.5,136.4,233,138.5z M207.8,103.6
		c-0.4,0.2-0.7,0.4-1.1,0.6c-3.2,1.9-5.2,5.1-6,9.2c-1.1,5.8,0.7,12.4,4.6,17.6c4.9,6.5,12.7,9.9,19.7,8.6c2.6,0,5.2-0.6,7.7-1.8
		c4.3-2,7.9-5.6,10.3-10.2c3-5.8,3.5-12.6,1.5-18c-1.5-3.9-4.1-6.7-7.5-8.1c-3.9-1.6-7.2-0.4-10.4,0.6c-1.6,0.5-3.1,1-4.6,1.2
		c-1.5,0.1-3.1-0.1-4.7-0.3C214.1,102.5,211,102,207.8,103.6z"/>
	<path class="st4" d="M215.6,131.9c-0.1,0.1-0.3,0.1-0.4,0c-2.1-1.2-4-2.9-5.4-4.9c-2.9-4-4.2-8.9-3.4-13.3c0-0.2,0.3-0.4,0.5-0.3
		c0.2,0,0.4,0.3,0.3,0.5c-0.7,4.1,0.5,8.9,3.3,12.6c1.4,1.9,3.2,3.5,5.2,4.7c0.2,0.1,0.3,0.4,0.2,0.6
		C215.8,131.8,215.7,131.8,215.6,131.9z"/>
	<path class="st4" d="M226.2,133.7c0,0-0.1,0-0.1,0c-0.4,0-0.9,0.1-1.3,0.1c-0.9,0.2-2,0.2-3,0.1c-0.2,0-0.4-0.2-0.4-0.4
		c0-0.2,0.2-0.4,0.4-0.4c1,0.1,1.9,0,2.9-0.1c0.5,0,0.9,0,1.3-0.1c0.2,0,0.4,0.2,0.5,0.4C226.5,133.5,226.3,133.6,226.2,133.7z"/>
	<path class="st4" d="M215.6,131.9c-0.1,0.1-0.3,0.1-0.4,0c-2.1-1.2-4-2.9-5.4-4.9c-2.9-4-4.2-8.9-3.4-13.3c0-0.2,0.3-0.4,0.5-0.3
		c0.2,0,0.4,0.3,0.3,0.5c-0.7,4.1,0.5,8.9,3.3,12.6c1.4,1.9,3.2,3.5,5.2,4.7c0.2,0.1,0.3,0.4,0.2,0.6
		C215.8,131.8,215.7,131.8,215.6,131.9z"/>
	<path class="st4" d="M226.2,133.7c0,0-0.1,0-0.1,0c-0.4,0-0.9,0.1-1.3,0.1c-0.9,0.2-2,0.2-3,0.1c-0.2,0-0.4-0.2-0.4-0.4
		c0-0.2,0.2-0.4,0.4-0.4c1,0.1,1.9,0,2.9-0.1c0.5,0,0.9,0,1.3-0.1c0.2,0,0.4,0.2,0.5,0.4C226.5,133.5,226.3,133.6,226.2,133.7z"/>
</g>
</svg>
